HIERARCHY
ROOT SpineBase
{
  OFFSET 0.000000 0.000000 0.000000
  CHANNELS 6 Xposition Yposition Zposition Zrotation Xrotation Yrotation
  JOINT SpineMid
  {
    OFFSET 0.000000 31.148789 0.000000
    CHANNELS 3 Zrotation Xrotation Yrotation
    JOINT SpineShoulder
    {
      OFFSET 0.133769 23.164013 -0.819013
      CHANNELS 3 Zrotation Xrotation Yrotation
      JOINT Neck
      {
        OFFSET 0.080135 7.668914 -0.603600
        CHANNELS 3 Zrotation Xrotation Yrotation
        JOINT Head
        {
          OFFSET -3.677148 12.877405 1.902513
          CHANNELS 3 Zrotation Xrotation Yrotation
          End Site
          {
            OFFSET 0 0 0
          }
        }
      }
      JOINT ShoulderLeft
      {
        OFFSET -17.697235 -4.754104 7.138234
        CHANNELS 3 Zrotation Xrotation Yrotation
        JOINT ElbowLeft
        {
          OFFSET -3.835411 -27.669038 2.124720
          CHANNELS 3 Zrotation Xrotation Yrotation
          JOINT WristLeft
          {
            OFFSET -0.170273 -21.733693 -0.687356
            CHANNELS 3 Zrotation Xrotation Yrotation
            JOINT HandLeft
            {
              OFFSET 0.301847 -7.472796 0.781520
              CHANNELS 3 Zrotation Xrotation Yrotation
              JOINT HandTipLeft
              {
                OFFSET 1.039796 -6.590532 1.294986
                CHANNELS 3 Zrotation Xrotation Yrotation
                End Site
                {
                  OFFSET 0 0 0
                }
              }
              JOINT ThumbLeft
              {
                OFFSET -2.100734 -0.507884 -1.136966
                CHANNELS 3 Zrotation Xrotation Yrotation
                End Site
                {
                  OFFSET 0 0 0
                }
              }
            }
          }
        }
      }
      JOINT ShoulderRight
      {
        OFFSET 13.714536 -3.869776 -5.967482
        CHANNELS 3 Zrotation Xrotation Yrotation
        JOINT ElbowRight
        {
          OFFSET 8.101988 -27.060457 -2.205799
          CHANNELS 3 Zrotation Xrotation Yrotation
          JOINT WristRight
          {
            OFFSET 2.660945 -21.850374 -6.710560
            CHANNELS 3 Zrotation Xrotation Yrotation
            JOINT HandRight
            {
              OFFSET -0.557293 -6.406332 -2.685676
              CHANNELS 3 Zrotation Xrotation Yrotation
              JOINT HandTipRight
              {
                OFFSET -0.314920 -7.841475 -0.545422
                CHANNELS 3 Zrotation Xrotation Yrotation
                End Site
                {
                  OFFSET 0 0 0
                }
              }
              JOINT ThumbRight
              {
                OFFSET 2.316498 -1.260697 -2.058025
                CHANNELS 3 Zrotation Xrotation Yrotation
                End Site
                {
                  OFFSET 0 0 0
                }
              }
            }
          }
        }
      }
    }
  }
  JOINT HipLeft
  {
    OFFSET -6.927146 0.028631 -1.380869
    CHANNELS 3 Zrotation Xrotation Yrotation
    JOINT KneeLeft
    {
      OFFSET 1.132715 -37.065158 3.929584
      CHANNELS 3 Zrotation Xrotation Yrotation
      JOINT AnkleLeft
      {
        OFFSET 7.849571 -37.000790 10.427048
        CHANNELS 3 Zrotation Xrotation Yrotation
        JOINT FootLeft
        {
          OFFSET -1.860552 -8.225342 -5.554290
          CHANNELS 3 Zrotation Xrotation Yrotation
          End Site
          {
            OFFSET 0 0 0
          }
        }
      }
    }
  }
  JOINT HipRight
  {
    OFFSET 7.370388 1.669210 -5.604887
    CHANNELS 3 Zrotation Xrotation Yrotation
    JOINT KneeRight
    {
      OFFSET 5.009967 -36.362772 -11.137714
      CHANNELS 3 Zrotation Xrotation Yrotation
      JOINT AnkleRight
      {
        OFFSET 7.543045 -36.606390 7.379497
        CHANNELS 3 Zrotation Xrotation Yrotation
        JOINT FootRight
        {
          OFFSET -4.070395 -3.528497 -13.341601
          CHANNELS 3 Zrotation Xrotation Yrotation
          End Site
          {
            OFFSET 0 0 0
          }
        }
      }
    }
  }
}
MOTION
Frames: 10
Frame Time: 0.033333
-18.515826 84.609396 332.206060 -1.798666 0.107118 14.046371 0.277116 0.377402 -14.099092 0.170250 0.162506 -0.058278 -13.269693 -3.999512 0.805438 0.000000 0.000000 0.000000 -87.738198 -17.609909 -20.983622 -33.568919 -18.345388 -5.554100 -10.617253 -7.772968 -49.193977 -21.907944 3.069971 1.867714 0.000000 0.000000 0.000000 0.000000 0.000000 0.000000 -1.345437 -2.434082 -0.238231 0.188842 -0.023107 0.881674 6.470364 -21.387011 0.438273 -3.986520 23.093083 0.413479 0.000000 0.000000 0.000000 0.000000 0.000000 0.000000 1.407104 -4.407056 -14.099407 -5.257849 -1.166052 -2.176443 0.253690 1.294045 6.197277 0.000000 0.000000 0.000000 0.780197 -12.133357 -16.378827 -6.498137 10.068839 2.180412 13.950361 -27.047263 0.158947 0.000000 0.000000 0.000000
-18.461483 84.671848 332.206470 -1.848256 0.102980 13.611602 0.254090 0.343451 -13.666556 0.142264 0.133023 -0.063054 -14.106251 -3.728142 1.027495 0.000000 0.000000 0.000000 -85.727182 -18.319499 -20.735098 -22.738199 -16.766327 -5.137755 -14.173032 -9.376153 -40.040544 -19.013034 4.921592 -1.411077 0.000000 0.000000 0.000000 0.000000 0.000000 0.000000 -1.257435 -2.848893 -0.388411 0.317099 -0.236508 0.897094 6.634146 -19.823621 0.313568 -4.326492 22.228981 0.650888 0.000000 0.000000 0.000000 0.000000 0.000000 0.000000 1.333162 -4.377756 -13.686895 -5.054233 -1.210310 -2.165345 0.231398 1.541019 6.134008 0.000000 0.000000 0.000000 0.857180 -12.048136 -15.904088 -6.472806 9.948048 2.113299 12.282158 -22.104870 -1.426913 0.000000 0.000000 0.000000
-18.421120 84.742418 332.217636 -1.919436 0.077118 13.225846 0.231771 0.293449 -13.284038 0.113764 0.093004 -0.068569 -14.671713 -3.349792 1.266615 0.000000 0.000000 0.000000 -83.694520 -18.903215 -20.344526 -13.624306 -16.414839 -6.347201 -16.859633 -10.523643 -32.759459 -12.517310 4.296187 -11.366666 0.000000 0.000000 0.000000 0.000000 0.000000 0.000000 -1.158104 -3.192167 -0.527883 0.438638 -0.202696 0.945962 6.239684 -18.584828 0.349348 -4.564049 20.603017 0.777764 0.000000 0.000000 0.000000 0.000000 0.000000 0.000000 1.277401 -4.299051 -13.324008 -4.800602 -1.312499 -2.153117 -0.022041 2.065220 6.145593 0.000000 0.000000 0.000000 0.959806 -11.945930 -15.481422 -6.438213 9.761672 2.034275 11.677098 -19.983036 -1.808912 0.000000 0.000000 0.000000
-18.389991 84.799788 332.312092 -2.005836 0.007959 13.051058 0.206139 0.230919 -13.113854 0.085192 0.045975 -0.074682 -14.908027 -2.872261 1.507234 0.000000 0.000000 0.000000 -80.879058 -19.202966 -19.447027 -7.484032 -15.008372 -5.713652 -20.326359 -14.719680 -33.599481 -9.343024 6.322970 -10.063149 0.000000 0.000000 0.000000 0.000000 0.000000 0.000000 -1.039093 -3.527120 -0.682747 0.534584 0.054408 1.042146 5.630509 -17.499534 0.452410 -5.042696 19.177682 0.936456 0.000000 0.000000 0.000000 0.000000 0.000000 0.000000 1.226371 -4.112011 -13.172900 -4.514735 -1.488342 -2.144219 -0.346487 3.099523 6.078250 0.000000 0.000000 0.000000 1.070031 -11.801712 -15.278437 -6.430150 9.578552 1.967289 11.803641 -20.041178 -2.061315 0.000000 0.000000 0.000000
-18.375003 84.874914 332.303073 -2.089166 -0.053660 12.624968 0.185131 0.178326 -12.692180 0.064761 0.004055 -0.079965 -14.962795 -2.338428 1.752907 0.000000 0.000000 0.000000 -78.466129 -19.560463 -18.752565 -5.462920 -15.747352 -6.616490 -19.980094 -14.134384 -29.462930 -6.995045 3.807268 -15.237985 0.000000 0.000000 0.000000 0.000000 0.000000 0.000000 -0.993715 -3.610603 -0.747031 0.636349 0.142041 1.077302 4.773007 -14.639581 0.413993 -5.528861 17.140884 1.023371 0.000000 0.000000 0.000000 0.000000 0.000000 0.000000 1.207291 -3.982435 -12.767170 -4.226552 -1.651263 -2.131528 -1.056977 4.218900 6.264149 0.000000 0.000000 0.000000 1.217545 -11.662789 -14.818593 -6.443594 9.488853 1.920212 12.407569 -21.557186 -2.181796 0.000000 0.000000 0.000000
-18.384019 84.957291 332.217738 -2.167682 -0.114123 12.115631 0.163771 0.137805 -12.187242 0.048832 -0.024679 -0.084834 -14.879171 -1.824554 1.974002 0.000000 0.000000 0.000000 -76.030705 -19.637981 -17.912097 -6.685509 -17.709756 -8.040849 -17.150580 -11.929071 -25.592222 -3.836844 -0.242787 -22.274915 0.000000 0.000000 0.000000 0.000000 0.000000 0.000000 -0.972083 -3.490836 -0.736315 0.710989 0.147562 1.074321 4.158998 -12.322229 0.366182 -5.389700 15.870088 0.868788 0.000000 0.000000 0.000000 0.000000 0.000000 0.000000 1.209423 -3.928615 -12.275805 -3.955161 -1.715568 -2.101401 -1.990776 5.289748 6.602499 0.000000 0.000000 0.000000 1.346318 -11.586573 -14.284010 -6.333608 9.444948 1.880354 13.668900 -25.312643 -1.809325 0.000000 0.000000 0.000000
-18.395517 85.035870 332.048011 -2.215239 -0.161036 11.511474 0.162809 0.102753 -11.585602 0.054123 -0.043652 -0.085926 -14.775128 -1.375171 2.151565 0.000000 0.000000 0.000000 -75.233636 -20.637110 -18.161948 -11.092616 -19.607982 -9.348651 -13.244800 -8.726260 -23.365609 -5.251815 -2.437848 -24.382211 0.000000 0.000000 0.000000 0.000000 0.000000 0.000000 -0.944550 -3.252043 -0.685738 0.570819 0.171455 1.103545 3.571368 -9.753198 0.279319 -5.228884 13.677970 0.683992 0.000000 0.000000 0.000000 0.000000 0.000000 0.000000 1.212523 -3.949601 -11.686251 -3.756390 -1.689458 -2.069651 -2.669757 5.878417 6.885295 0.000000 0.000000 0.000000 1.420210 -11.573875 -13.658960 -6.118154 9.598821 1.880010 16.003419 -31.961494 -0.461909 0.000000 0.000000 0.000000
-18.432516 85.108659 331.863612 -2.241719 -0.192864 10.961544 0.169225 0.074259 -11.037004 0.067983 -0.056919 -0.085269 -14.778483 -0.950311 2.330470 0.000000 0.000000 0.000000 -76.321991 -22.272625 -19.441665 -15.757687 -21.060522 -10.541794 -9.951228 -6.241557 -23.094469 -11.243329 -2.096514 -20.582204 0.000000 0.000000 0.000000 0.000000 0.000000 0.000000 -0.911413 -2.952403 -0.611387 0.504364 0.090838 1.067445 3.187018 -7.799151 0.206042 -4.341789 11.656164 0.364743 0.000000 0.000000 0.000000 0.000000 0.000000 0.000000 1.232851 -4.023731 -11.145087 -3.615746 -1.594416 -2.031849 -3.128930 6.054485 7.088616 0.000000 0.000000 0.000000 1.458329 -11.587128 -13.091722 -5.885833 9.809835 1.894253 20.065169 -41.234982 2.318723 0.000000 0.000000 0.000000
-18.473172 85.186026 331.678928 -2.229241 -0.191762 10.442541 0.196875 0.055072 -10.516662 0.097467 -0.058592 -0.080980 -14.970100 -0.688328 2.458176 0.000000 0.000000 0.000000 -78.520894 -23.956924 -21.238641 -20.156425 -21.600788 -10.783019 -8.892661 -5.419089 -25.073271 -16.891911 -1.241312 -15.322295 0.000000 0.000000 0.000000 0.000000 0.000000 0.000000 -1.108662 -2.541389 -0.479327 0.683467 -0.105416 0.938441 2.488193 -6.406558 0.312544 -3.612855 10.994477 0.044155 0.000000 0.000000 0.000000 0.000000 0.000000 0.000000 1.231055 -4.116837 -10.630720 -3.518273 -1.508093 -2.002316 -3.185414 5.689640 7.132740 0.000000 0.000000 0.000000 1.437250 -11.627757 -12.553779 -5.605523 10.050007 1.911360 20.121403 -41.956290 2.269789 0.000000 0.000000 0.000000
-18.537655 85.263628 331.537967 -2.222469 -0.190884 9.958579 0.210399 0.058415 -10.031944 0.114054 -0.046941 -0.078738 -14.950767 -0.497099 2.534907 0.000000 0.000000 0.000000 -82.765855 -25.538006 -23.951429 -25.702141 -23.183320 -12.453249 -5.922728 -3.220976 -27.294647 -25.363855 -1.688089 -4.743091 0.000000 0.000000 0.000000 0.000000 0.000000 0.000000 -1.226470 -2.213524 -0.363909 0.824640 -0.067068 0.855138 2.080458 -5.678177 0.332205 -3.065640 9.578994 -0.138319 0.000000 0.000000 0.000000 0.000000 0.000000 0.000000 1.267840 -4.215917 -10.146498 -3.464791 -1.415964 -1.976472 -3.121857 5.533121 7.048349 0.000000 0.000000 0.000000 1.451494 -11.663112 -12.056092 -5.450134 10.243252 1.930054 17.761661 -37.603470 0.521530 0.000000 0.000000 0.000000
